<?xml version="1.0" standalone="no"?><!DOCTYPE svg PUBLIC "-//W3C//DTD SVG 1.1//EN" "http://www.w3.org/Graphics/SVG/1.1/DTD/svg11.dtd"><svg t="1777441475066" class="icon" viewBox="0 0 1024 1024" version="1.1" xmlns="http://www.w3.org/2000/svg" p-id="1371" xmlns:xlink="http://www.w3.org/1999/xlink" width="200" height="200"><path d="M862.72 53.76a51.2 51.2 0 0 1 51.2 51.2v399.82a295.68 295.68 0 0 0-364.134 463.002l-444.826-0.102a51.2 51.2 0 0 1-51.2-51.2V104.96a51.2 51.2 0 0 1 51.2-51.2h757.76zM340.48 483.84H197.12a35.84 35.84 0 0 0-35.533 30.976l-0.307 4.864v3.584a35.84 35.84 0 0 0 30.976 35.533l4.864 0.307h143.36a35.84 35.84 0 0 0 35.533-30.976l0.307-4.864v-3.584a35.84 35.84 0 0 0-35.84-35.84z m268.8-161.28H197.12a35.84 35.84 0 0 0-35.533 30.976l-0.307 4.864v3.584a35.84 35.84 0 0 0 30.976 35.533l4.864 0.307h412.16a35.84 35.84 0 0 0 35.533-30.976l0.307-4.864V358.4a35.84 35.84 0 0 0-35.84-35.84z m0-161.28H197.12a35.84 35.84 0 0 0-35.533 30.976l-0.307 4.864v3.584a35.84 35.84 0 0 0 30.976 35.533l4.864 0.307h412.16a35.84 35.84 0 0 0 35.533-30.976l0.307-4.864v-3.584a35.84 35.84 0 0 0-35.84-35.84z" fill="#395AC5" p-id="1372"></path><path d="M752.64 510.72a241.92 241.92 0 1 1 0 483.84 241.92 241.92 0 0 1 0-483.84z m-8.704 69.069h-2.56a25.6 25.6 0 0 0-25.6 25.6v163.84a25.958 25.958 0 0 0 0.307 4.147l0.256 1.331a25.39 25.39 0 0 0 7.885 13.67l81.818 73.626a25.6 25.6 0 0 0 36.147-1.894l1.74-1.895a25.6 25.6 0 0 0-1.894-36.147l-72.55-65.28V605.39a25.6 25.6 0 0 0-20.992-25.19l-4.608-0.41z" fill="#F5874C" p-id="1373"></path></svg>