<svg width="1024" height="1024" xmlns="http://www.w3.org/2000/svg" p-id="1162" version="1.1" class="icon" t="1777529078329">

 <g>
  <title>Layer 1</title>
  <g stroke="null" id="svg_4">
   <path stroke="null" id="svg_1" p-id="1163" fill="#FAC9CC" d="m116.50202,434.89184l22.24541,412.54044c4.14971,76.99194 67.78848,137.29612 144.89898,137.29612l456.86824,0c77.1105,0 140.74927,-60.30418 144.89898,-137.29612l22.24541,-412.54044l-791.15701,0z"/>
   <path stroke="null" id="svg_2" p-id="1164" fill="#FA4A3B" d="m883.9464,344.48744l-743.74657,0c-34.30921,0 -66.09895,-15.50213 -87.24765,-42.51971c-21.13388,-27.01758 -28.52926,-61.60837 -20.28912,-94.90979l22.36397,-90.28583a150.68634,150.68634 0 0 1 146.52922,-114.65056l621.0189,0c69.5521,0 129.797,47.14367 146.52922,114.65056l22.36397,90.28583c8.25496,33.30142 0.85958,67.89222 -20.28912,94.90979c-21.13388,27.01758 -52.93844,42.51971 -87.24765,42.51971l0.01482,0zm-682.39015,-268.2491a76.71035,76.71035 0 0 0 -74.59104,58.36271l-22.36397,90.28583c-2.72695,11.02637 -0.28159,22.48254 6.71364,31.41923c6.99523,8.95152 17.53252,14.07937 28.88494,14.07937l743.74657,0c11.35242,0 21.88972,-5.12786 28.88494,-14.07937c6.99523,-8.95152 9.44059,-20.39286 6.71364,-31.41923l-22.36397,-90.28583a76.70591,76.70591 0 0 0 -74.59104,-58.36271l-621.0189,0l-0.01482,0zm538.94357,945.54104l-456.86824,0c-96.79198,0 -176.68872,-75.70256 -181.89068,-172.36116l-22.24541,-412.54044c-1.09671,-20.43732 14.56845,-37.89574 35.00577,-38.99245c20.43732,-1.11153 37.89574,14.56845 38.99245,35.00577l22.24541,412.54044c3.09746,57.32528 50.49308,102.24589 107.90728,102.24589l456.86824,0c57.4142,0 104.80982,-44.90579 107.90728,-102.24589l22.24541,-412.54044c1.09671,-20.43732 18.55513,-36.10248 38.99245,-35.00577c20.43732,1.09671 36.10248,18.55513 35.00577,38.99245l-22.24541,412.54044c-5.21678,96.64378 -85.11351,172.36116 -181.89068,172.36116l-0.02964,0z"/>
   <path stroke="null" id="svg_3" p-id="1165" fill="#FA4A3B" d="m389.18242,865.21675c-20.00753,0 -36.48781,-15.94674 -37.02134,-36.07284l-7.42502,-279.15691c-0.54835,-20.45214 15.59105,-37.48077 36.05801,-38.02913c20.45214,-0.56317 37.48077,15.59105 38.02913,36.05801l7.42502,279.15691c0.54835,20.45214 -15.59105,37.48077 -36.05801,38.02913l-1.00779,0l0,0.01482zm245.78139,0l-1.00779,0c-20.45214,-0.54835 -36.59155,-17.56217 -36.05801,-38.02913l7.42502,-279.15691c0.54835,-20.45214 17.54734,-36.59155 38.02913,-36.05801c20.45214,0.54835 36.59155,17.56217 36.05801,38.02913l-7.42502,279.15691c-0.53353,20.12609 -17.01381,36.07284 -37.02134,36.07284l0,-0.01482z"/>
  </g>
 </g>
</svg>