<?xml version="1.0" standalone="no"?><!DOCTYPE svg PUBLIC "-//W3C//DTD SVG 1.1//EN" "http://www.w3.org/Graphics/SVG/1.1/DTD/svg11.dtd"><svg t="1777529078329" class="icon" viewBox="0 0 1024 1024" version="1.1" xmlns="http://www.w3.org/2000/svg" p-id="1162" xmlns:xlink="http://www.w3.org/1999/xlink" width="200" height="200"><path d="M257.18 464l15.01 278.36c2.8 51.95 45.74 92.64 97.77 92.64h308.27c52.03 0 94.97-40.69 97.77-92.64L791.01 464H257.18z" fill="#FAC9CC" p-id="1163"></path><path d="M775.01 403H273.17c-23.15 0-44.6-10.46-58.87-28.69-14.26-18.23-19.25-41.57-13.69-64.04l15.09-60.92a101.675 101.675 0 0 1 98.87-77.36H733.6c46.93 0 87.58 31.81 98.87 77.36l15.09 60.92c5.57 22.47 0.58 45.81-13.69 64.04C819.61 392.54 798.15 403 775 403zM314.57 222a51.76 51.76 0 0 0-50.33 39.38l-15.09 60.92c-1.84 7.44-0.19 15.17 4.53 21.2 4.72 6.04 11.83 9.5 19.49 9.5h501.84c7.66 0 14.77-3.46 19.49-9.5 4.72-6.04 6.37-13.76 4.53-21.2l-15.09-60.92A51.757 51.757 0 0 0 733.61 222H314.58zM678.22 860H369.95c-65.31 0-119.22-51.08-122.73-116.3l-15.01-278.36c-0.74-13.79 9.83-25.57 23.62-26.31 13.79-0.75 25.57 9.83 26.31 23.62l15.01 278.36c2.09 38.68 34.07 68.99 72.81 68.99h308.27c38.74 0 70.72-30.3 72.81-68.99l15.01-278.36c0.74-13.79 12.52-24.36 26.31-23.62 13.79 0.74 24.36 12.52 23.62 26.31L800.97 743.7C797.45 808.91 743.54 860 678.24 860z" fill="#FA4A3B" p-id="1164"></path><path d="M441.17 754.36c-13.5 0-24.62-10.76-24.98-24.34l-5.01-188.36c-0.37-13.8 10.52-25.29 24.33-25.66 13.8-0.38 25.29 10.52 25.66 24.33l5.01 188.36c0.37 13.8-10.52 25.29-24.33 25.66h-0.68zM607.01 754.36h-0.68c-13.8-0.37-24.69-11.85-24.33-25.66l5.01-188.36c0.37-13.8 11.84-24.69 25.66-24.33 13.8 0.37 24.69 11.85 24.33 25.66l-5.01 188.36c-0.36 13.58-11.48 24.34-24.98 24.34z" fill="#FA4A3B" p-id="1165"></path></svg>