<svg width="1024" height="1024" xmlns="http://www.w3.org/2000/svg" p-id="1162" version="1.1" class="icon" t="1777529078329">
 <g>
  <title>Layer 1</title>
  <g stroke="null" id="svg_4">
   <path stroke="null" id="svg_1" p-id="1163" fill="#FAC9CC" d="m117.51985,434.83563l22.24541,412.54049c4.14971,76.99195 67.78848,137.29613 144.89899,137.29613l456.86829,0c77.11051,0 140.74928,-60.30418 144.89899,-137.29613l22.24541,-412.54049l-791.1571,0z"/>
   <path stroke="null" id="svg_2" p-id="1164" fill="#f9843b" d="m884.96432,344.43122l-743.74666,0c-34.30921,0 -66.09896,-15.50213 -87.24766,-42.51971c-21.13388,-27.01758 -28.52926,-61.60838 -20.28912,-94.9098l22.36397,-90.28584a150.68636,150.68636 0 0 1 146.52924,-114.65057l621.01897,0c69.55211,0 129.79701,47.14367 146.52924,114.65057l22.36397,90.28584c8.25496,33.30143 0.85958,67.89223 -20.28912,94.9098c-21.13388,27.01758 -52.93845,42.51971 -87.24766,42.51971l0.01482,0zm-682.39023,-268.24913a76.71036,76.71036 0 0 0 -74.59104,58.36271l-22.36397,90.28584c-2.72695,11.02637 -0.28159,22.48254 6.71364,31.41924c6.99523,8.95152 17.53253,14.07937 28.88495,14.07937l743.74666,0c11.35242,0 21.88972,-5.12786 28.88495,-14.07937c6.99523,-8.95152 9.44059,-20.39286 6.71364,-31.41924l-22.36397,-90.28584a76.70591,76.70591 0 0 0 -74.59104,-58.36271l-621.01897,0l-0.01482,0zm538.94363,945.54115l-456.86829,0c-96.79199,0 -176.68874,-75.70257 -181.8907,-172.36118l-22.24541,-412.54049c-1.09671,-20.43732 14.56845,-37.89575 35.00577,-38.99246c20.43732,-1.11153 37.89575,14.56845 38.99246,35.00577l22.24541,412.54049c3.09746,57.32528 50.49308,102.2459 107.90729,102.2459l456.86829,0c57.41421,0 104.80983,-44.90579 107.90729,-102.2459l22.24541,-412.54049c1.09671,-20.43732 18.55513,-36.10248 38.99246,-35.00577c20.43732,1.09671 36.10248,18.55513 35.00577,38.99246l-22.24541,412.54049c-5.21678,96.64379 -85.11352,172.36118 -181.8907,172.36118l-0.02964,0z"/>
   <path stroke="null" id="svg_3" p-id="1165" fill="#f9843b" d="m390.20028,865.16059c-20.00753,0 -36.48781,-15.94674 -37.02134,-36.07284l-7.42502,-279.15694c-0.54835,-20.45214 15.59105,-37.48078 36.05802,-38.02913c20.45214,-0.56317 37.48078,15.59105 38.02913,36.05802l7.42502,279.15694c0.54835,20.45214 -15.59105,37.48078 -36.05802,38.02913l-1.00779,0l0,0.01482zm245.78142,0l-1.00779,0c-20.45214,-0.54835 -36.59155,-17.56217 -36.05802,-38.02913l7.42502,-279.15694c0.54835,-20.45214 17.54735,-36.59155 38.02913,-36.05802c20.45214,0.54835 36.59155,17.56217 36.05802,38.02913l-7.42502,279.15694c-0.53353,20.1261 -17.01381,36.07284 -37.02134,36.07284l0,-0.01482z"/>
  </g>
 </g>

</svg>