<svg width="1024" height="1024" xmlns="http://www.w3.org/2000/svg" p-id="2711" version="1.1" class="icon" t="1778043868220">

 <g>
  <title>Layer 1</title>
  <path id="svg_1" p-id="2712" fill="#287aff" d="m298.56235,519.61532l0,111.83048c0,9.18012 11.2665,13.3529 17.31703,6.46781l102.23309,-118.29829l350.30481,0c30.66992,0 55.49796,-24.82803 55.49796,-55.49796l0,-302.52649c0,-30.66993 -24.82804,-55.49796 -55.49796,-55.49796l-512.20864,0c-30.66993,0 -55.49796,24.82804 -55.49796,55.49796l0,302.52649c0,30.66993 24.82803,55.49796 55.49796,55.49796l42.35371,0z"/>
  <path id="svg_2" p-id="2713" d="m178.17767,813.17033l224.70416,0c6.05053,17.94295 22.95028,30.87857 42.77098,30.87857l132.48574,0c19.8207,0 36.72046,-12.93561 42.77099,-30.87857l224.91279,0c10.43195,0 18.98615,-8.55419 18.98615,-18.98614s-8.5542,-18.98615 -18.98615,-18.98615l-241.39527,0c-10.43195,0 -18.98615,8.5542 -18.98615,18.98615l0,4.59006c0,3.96414 -3.33822,7.30236 -7.30236,7.30236l-132.48574,0c-3.96414,0 -7.30236,-3.33822 -7.30236,-7.30236l0,-4.59006c0,-10.43195 -8.5542,-18.98615 -18.98615,-18.98615l-241.18663,0c-10.43195,0 -18.98615,8.5542 -18.98615,18.98615c0.20864,10.43195 8.5542,18.98614 18.98615,18.98614z"/>
  <path id="svg_3" p-id="2714" d="m1005.01386,775.19804l-56.33252,0l0,-479.8696c0,-10.43194 -8.5542,-18.98614 -18.98615,-18.98614s-18.98614,8.55419 -18.98614,18.98614l0,498.85575c0,10.43195 8.55419,18.98614 18.98614,18.98614l56.12388,0l0,30.25265c0,30.46129 -24.82803,55.08069 -55.08068,55.08069l-837.68541,0c-30.46129,0 -55.08069,-24.82804 -55.08069,-55.08069l0,-30.25265l56.12388,0c10.43195,0 18.98615,-8.55419 18.98615,-18.98614l0,-498.85575c0,-10.43194 -8.5542,-18.98614 -18.98615,-18.98614s-18.98614,8.5542 -18.98615,18.98614l0,479.8696l-56.12387,0c-10.43195,0 -18.98615,8.5542 -18.98615,18.98615l0,49.23879c0,51.32519 41.72779,93.05298 93.05298,93.05298l837.89404,0c51.32519,0 93.05298,-41.72779 93.05298,-93.05298l0,-49.23879c-0.20864,-10.43195 -8.5542,-18.98615 -18.98614,-18.98615z"/>
  <path id="svg_4" p-id="2715" d="m594.41239,232.73676l-121.0106,120.38467l-42.97962,-43.18826c-7.30237,-7.511 -19.40342,-7.511 -26.70579,0c-7.511,7.30236 -7.511,19.40342 0,26.70579l56.33252,56.54115c3.7555,3.7555 8.5542,5.63326 13.35289,5.63326c4.7987,0 9.5974,-1.87775 13.3529,-5.42462l134.36348,-133.73757c7.51101,-7.30236 7.51101,-19.40342 0,-26.70578c-7.511,-7.51101 -19.40342,-7.51101 -26.70578,-0.20864z"/>
  <path id="svg_5" p-id="2716" d="m768.41728,87.52404l-512.20864,0c-40.89324,0 -74.27547,33.38223 -74.27547,74.27547l0,302.52649c0,40.89323 33.38223,74.27547 74.27547,74.27547l23.36756,0l0,92.84433c0,15.85656 12.93562,28.79218 28.79218,28.79218c8.34556,0 16.27384,-3.54686 21.69845,-10.01467l96.59984,-111.83048l341.54197,0c40.89323,0 74.27547,-33.38223 74.27547,-74.27547l0,-302.52649c0.20864,-40.89323 -33.1736,-74.06683 -74.06683,-74.06683zm36.51181,376.80196c0,20.02934 -16.27383,36.51182 -36.51181,36.51182l-350.30481,0c-5.42461,0 -10.64059,2.29503 -14.39609,6.4678l-86.37653,99.93806l0,-87.62836c0,-10.43195 -8.55419,-18.98614 -18.98614,-18.98614l-42.35371,0c-20.02934,0 -36.51182,-16.27384 -36.51182,-36.51182l0,-302.52649c0,-20.02934 16.27384,-36.51182 36.51182,-36.51182l512.20864,0c20.02934,0 36.51182,16.27384 36.51182,36.51182l0,302.73513l0.20863,0z"/>
 </g>
</svg>